<svg width="64" height="64" viewBox="0 0 64 64" fill="none" xmlns="http://www.w3.org/2000/svg">
<g clip-path="url(#clip0_328_2)">
<rect x="14.3222" y="1.38139" width="50" height="50" rx="9" transform="rotate(15 14.3222 1.38139)" fill="#1F1E26" stroke="#302E35" stroke-width="6"/>
<path d="M16.4347 46.4643C14.1004 45.8388 13.4259 42.8511 15.265 41.2834L35.5617 23.9819L26.2506 21.4871C22.8776 20.5833 22.0459 16.1802 24.8568 14.1084C25.8768 13.3565 27.1835 13.1097 28.4074 13.4377L48.1415 18.7254C50.5012 19.3577 51.1562 22.3944 49.267 23.9432L28.4064 41.0448L38.5209 43.7549C41.8939 44.6587 42.7256 49.0617 39.9147 51.1336C38.8947 51.8855 37.588 52.1323 36.3641 51.8043L16.4347 46.4643Z" fill="#E5E5E9"/>
</g>
<defs>
<clipPath id="clip0_328_2">
<rect width="64" height="64" fill="white"/>
</clipPath>
</defs>
</svg>